<?xml version="1.0" encoding="UTF-8" standalone="no"?><!-- Generator: Gravit.io --><svg xmlns="http://www.w3.org/2000/svg" xmlns:xlink="http://www.w3.org/1999/xlink" style="isolation:isolate" viewBox="226.117 271.5 144.383 24" width="144.383pt" height="24pt"><defs><clipPath id="_clipPath_zHlTg1Us79A6fvbUmtILZ5XPLXW5pUee"><rect x="226.117" y="271.5" width="144.383" height="24"/></clipPath></defs><g clip-path="url(#_clipPath_zHlTg1Us79A6fvbUmtILZ5XPLXW5pUee)"><path d="M 233.057 272 L 363.56 272 C 367.114 272 370 274.886 370 278.44 L 370 288.56 C 370 292.114 367.114 295 363.56 295 L 233.057 295 C 229.503 295 226.617 292.114 226.617 288.56 L 226.617 278.44 C 226.617 274.886 229.503 272 233.057 272 Z" style="stroke:none;fill:#FFFFFF;stroke-miterlimit:10;"/><path d="M 233.057 272 L 363.56 272 C 367.114 272 370 274.886 370 278.44 L 370 288.56 C 370 292.114 367.114 295 363.56 295 L 233.057 295 C 229.503 295 226.617 292.114 226.617 288.56 L 226.617 278.44 C 226.617 274.886 229.503 272 233.057 272 Z" style="fill:none;stroke:#000000;stroke-width:1;stroke-linecap:square;stroke-miterlimit:2;"/><path d=" M 364.617 283.5 C 364.617 279.19 361.122 275.695 356.812 275.695 C 352.501 275.695 349.006 279.19 349.006 283.5 C 349.006 287.81 352.497 291.305 356.812 291.305 C 361.122 291.305 364.617 287.815 364.617 283.5 L 364.617 283.5 Z  M 356.461 285.824 L 353.61 281.494 C 353.419 281.2 353.545 280.963 353.896 280.963 L 359.723 280.963 C 360.074 280.963 360.201 281.204 360.009 281.494 L 357.158 285.824 C 356.967 286.114 356.653 286.114 356.461 285.824 L 356.461 285.824 Z " fill="rgb(147,149,152)"/></g></svg>