<?xml version="1.0" encoding="UTF-8" standalone="no"?><!-- Generator: Gravit.io --><svg xmlns="http://www.w3.org/2000/svg" xmlns:xlink="http://www.w3.org/1999/xlink" style="isolation:isolate" viewBox="169.5 314.5 294 48" width="294pt" height="48pt"><defs><clipPath id="_clipPath_1xSyn10fqiRpb3ymChmSH4iHGaMuH8xj"><rect x="169.5" y="314.5" width="294" height="48"/></clipPath></defs><g clip-path="url(#_clipPath_1xSyn10fqiRpb3ymChmSH4iHGaMuH8xj)"><path d="M 177.99 315 L 455.01 315 C 459.42 315 463 318.58 463 322.99 L 463 354.01 C 463 358.42 459.42 362 455.01 362 L 177.99 362 C 173.58 362 170 358.42 170 354.01 L 170 322.99 C 170 318.58 173.58 315 177.99 315 Z" style="stroke:none;fill:#FFFFFF;stroke-miterlimit:10;"/><path d="M 177.99 315 L 455.01 315 C 459.42 315 463 318.58 463 322.99 L 463 354.01 C 463 358.42 459.42 362 455.01 362 L 177.99 362 C 173.58 362 170 358.42 170 354.01 L 170 322.99 C 170 318.58 173.58 315 177.99 315 Z" style="fill:none;stroke:#000000;stroke-width:1;stroke-linecap:square;stroke-miterlimit:2;"/><path d=" M 452 338.5 C 452 329.692 444.858 322.55 436.05 322.55 C 427.242 322.55 420.1 329.692 420.1 338.5 C 420.1 347.308 427.233 354.45 436.05 354.45 C 444.858 354.45 452 347.317 452 338.5 L 452 338.5 Z  M 435.333 343.25 L 429.508 334.4 C 429.117 333.8 429.375 333.317 430.092 333.317 L 442 333.317 C 442.717 333.317 442.975 333.808 442.583 334.4 L 436.758 343.25 C 436.367 343.842 435.725 343.842 435.333 343.25 L 435.333 343.25 Z " fill="rgb(147,149,152)"/></g></svg>